<svg xmlns="http://www.w3.org/2000/svg" viewBox="0 0 32 32" width="32" height="32">
  <rect width="32" height="32" fill="#ffffff"/>
  <path d="M16 26 C16 26 4 18 4 10.5 C4 7 6.7 4 10 4 C12.4 4 14.5 5.4 16 7.5 C17.5 5.4 19.6 4 22 4 C25.3 4 28 7 28 10.5 C28 18 16 26 16 26Z" fill="#C9A84C"/>
  <!-- PQRST: flat → P bump → flat → Q dip → R spike → S dip → return → T hump → flat -->
  <polyline points="4,16 7,16 7.5,15.5 8.5,13 9.5,15.5 10,16 11,16 12,18 13.5,8 14.5,19 15.5,16 16,16 17.5,14 19,13 20.5,14 22,16 28,16" fill="none" stroke="#0A2342" stroke-width="2" stroke-linecap="round" stroke-linejoin="round"/>
</svg>
